<?xml version="1.0" encoding="UTF-8"?>
<svg xmlns="http://www.w3.org/2000/svg" version="1.1" viewBox="0 0 513.4 156.5">
  <defs>
    <style>
      .cls-1 {
        font-family: Nunito-Bold, Nunito;
        font-size: 20px;
        font-weight: 700;
      }

      .cls-2 {
        fill: #231f20;
      }

      .cls-3 {
        isolation: isolate;
      }

      .cls-4 {
        fill: #5f2268;
      }
    </style>
  </defs>
  <!-- Generator: Adobe Illustrator 28.6.0, SVG Export Plug-In . SVG Version: 1.2.0 Build 709)  -->
  <g>
    <g id="Layer_1">
      <g>
        <g class="cls-3">
          <path class="cls-2" d="M234.1,29.1v101.5h-12.1l-55.2-79.7h-1.1v79.7h-12.3V29.1h11.8l55.6,79.8h1V29.1h12.3Z"/>
          <path class="cls-2" d="M296,131.9c-9,0-16.9-2.1-23.7-6.3-6.8-4.2-12.1-10.2-15.9-18-3.8-7.8-5.7-17-5.7-27.7s1.9-20,5.7-27.8c3.8-7.8,9-13.8,15.7-18s14.3-6.3,23-6.3,10.3.8,15,2.4c4.6,1.6,8.8,3.9,12.4,6.8,3.6,3,6.7,6.4,9.1,10.5,2.4,4,4.1,8.5,5.1,13.4h-12.7c-1.1-3.4-2.5-6.4-4.3-9s-3.8-4.9-6.3-6.8-5.2-3.3-8.2-4.3-6.4-1.5-10.1-1.5c-6,0-11.5,1.6-16.4,4.7-4.9,3.1-8.9,7.7-11.8,13.8s-4.4,13.5-4.4,22.3,1.5,16.2,4.4,22.2c3,6,6.9,10.6,12,13.7s10.7,4.7,17,4.7,10.9-1.2,15.3-3.7,7.9-6,10.3-10.6c2.5-4.6,3.7-10,3.7-16.2l3.8.8h-30.5v-11.1h38.7v10.9c0,8.4-1.8,15.6-5.3,21.8-3.5,6.2-8.4,10.9-14.7,14.3-6,3.3-13.2,5-21.2,5Z"/>
          <path class="cls-2" d="M354.5,130.6V29.1h61.3v10.9h-49v33.9h45.8v10.9h-45.8v34.9h49.7v10.9h-62Z"/>
          <path class="cls-2" d="M433.9,130.6V29.1h12.3v90.6h47.3v10.9h-59.6Z"/>
        </g>
        <path class="cls-4" d="M150.8,59.3l-.2-1.1-1,.6c-8.4,5.3-19.8,10.6-33.8,15.7-3.5-18.4-5.4-30.8-5.4-43.2s0-4,.2-6.1l.3-.4c.6-.9,0-2.1-1.1-3.1s-3-1.8-4.1-.8l-.5.5h0c-9.5,20.8-21.4,42.3-34.2,62.2-17.1-7.2-33.5-10.6-40.5-11.2-2.8-.3-4.8-.2-6.5,0-2.5.4-4.1,2.3-4.1,4.8s.5,2.9,1.5,4.3c4.1,6.1,19.8,11,42.1,13.3h0c-11.9,17.6-24.2,35.6-33.5,35.6h-.6c-1-.1-1.5.5-1.6.8-.3.7,0,1.7.8,2.6h.1c0,.1.2.2.2.2,10.2,3.1,21.1-9.4,41.5-38.7h.4v-.7l.5-.8c2.4-.4,5-.9,7.8-1.6,1.3.8,5.5,3.3,6.7,3.7h.3c14.2,7.7,28,21.9,38,39.2.4.7,1.1,1,1.8,1s.8-.1,1.2-.3c1.1-.5,2.5-1.9,2.2-2.9l-.4-1.4c-3.5-13-6.5-24.3-9.3-37.1,0-1-.5-3.4-.8-4l-.6-3.3c-.5-2.6-1-5.1-1.5-7.6,17.5-6.9,32.1-13.8,32.2-13.8h.2c0,0,.1-.3.1-.3,2.1-3.1,1.7-6,1.7-6.2h0ZM93.2,95c0,0-.2-.2-.5-.3-1.3-.9-3.1-1.9-4.6-2.8-.4-.2-.8-.5-1.2-.7,0,0-.2-.2-.5-.3-.3-.2-.6-.3-.9-.5,7.4-2.1,16-5,25.6-8.7.7,3.4,1.4,6.5,2,9.5l.8,3.7c1.8,7.7,3.8,15.4,6,23.7l-.6-.8c-6.8-8.3-15.7-16-26.1-22.8h0ZM110.2,76.6c-12.5,4.4-24.5,7.8-32.5,9.9-.3,0-.6-.3-.9-.4l.7-1h0c2.1-3.6,4-7,5.9-10.2,8.1-13.8,14.7-24.9,21.2-39.1.3,9.2,2.3,24,5.6,40.8h0ZM65.2,89.6h-.4c-19.6-1.9-36.9-7.2-38.9-10.6-.3-.8-.1-1.1,0-1.2.8-1.1,4.5-1.2,6.2-1,14.7,1.7,27.9,6.4,36.6,10.2l-1.4,2.1c-1.3.3-2.1.5-2.1.5h0Z"/>
      </g>
      <text class="cls-1" transform="translate(465.2 29.2)"><tspan x="0" y="0">TM</tspan></text>
    </g>
  </g>
</svg>