<?xml version="1.0" encoding="utf-8"?>
<!-- Generator: Adobe Illustrator 28.3.0, SVG Export Plug-In . SVG Version: 6.00 Build 0)  -->
<svg version="1.1" id="Layer_1" xmlns="http://www.w3.org/2000/svg" xmlns:xlink="http://www.w3.org/1999/xlink" x="0px" y="0px"
	 viewBox="0 0 513.4 156.5" style="enable-background:new 0 0 513.4 156.5;" xml:space="preserve">
<style type="text/css">
	.st0{enable-background:new    ;}
	.st1{fill:#EEC277;}
	.st2{fill:#FFFFFF;}
</style>
<g>
	<g class="st0">
		<path class="st1" d="M234.1,29.1v101.5H222l-55.2-79.7h-1.1v79.7h-12.3V29.1h11.8l55.6,79.8h1V29.1H234.1z"/>
		<path class="st1" d="M296,131.9c-9,0-16.9-2.1-23.7-6.3c-6.8-4.2-12.1-10.2-15.9-18c-3.8-7.8-5.7-17-5.7-27.7s1.9-20,5.7-27.8
			c3.8-7.8,9-13.8,15.7-18s14.3-6.3,23-6.3c5.4,0,10.3,0.8,15,2.4c4.6,1.6,8.8,3.9,12.4,6.8c3.6,3,6.7,6.4,9.1,10.5
			c2.4,4,4.1,8.5,5.1,13.4H324c-1.1-3.4-2.5-6.4-4.3-9s-3.8-4.9-6.3-6.8s-5.2-3.3-8.2-4.3s-6.4-1.5-10.1-1.5c-6,0-11.5,1.6-16.4,4.7
			c-4.9,3.1-8.9,7.7-11.8,13.8s-4.4,13.5-4.4,22.3s1.5,16.2,4.4,22.2c3,6,6.9,10.6,12,13.7s10.7,4.7,17,4.7c5.8,0,10.9-1.2,15.3-3.7
			s7.9-6,10.3-10.6c2.5-4.6,3.7-10,3.7-16.2L329,91h-30.5V79.9h38.7v10.9c0,8.4-1.8,15.6-5.3,21.8c-3.5,6.2-8.4,10.9-14.7,14.3
			C311.2,130.2,304,131.9,296,131.9z"/>
		<path class="st1" d="M354.5,130.6V29.1h61.3V40h-49v33.9h45.8v10.9h-45.8v34.9h49.7v10.9H354.5z"/>
		<path class="st1" d="M433.9,130.6V29.1h12.3v90.6h47.3v10.9L433.9,130.6L433.9,130.6z"/>
	</g>
	<path class="st2" d="M150.8,59.3l-0.2-1.1l-1,0.6c-8.4,5.3-19.8,10.6-33.8,15.7c-3.5-18.4-5.4-30.8-5.4-43.2c0-2,0.1-4,0.2-6.1
		l0.3-0.4c0.6-0.9,0.1-2.1-1.1-3.1s-3-1.8-4.1-0.8l-0.5,0.5l-0.1,0.1c-9.5,20.7-21.4,42.2-34.2,62.1C53.8,76.4,37.4,73,30.4,72.4
		c-2.8-0.3-4.8-0.2-6.5,0.1c-2.5,0.4-4.1,2.3-4.1,4.8c0,1.5,0.5,2.9,1.5,4.3c4.1,6.1,19.8,11,42.1,13.3l0,0.1
		c-11.9,17.5-24.2,35.5-33.5,35.5c-0.2,0-0.4,0-0.6,0c-1-0.1-1.5,0.5-1.6,0.8c-0.3,0.7,0,1.7,0.8,2.6l0.1,0.1l0.2,0.1
		c10.2,3.1,21.1-9.4,41.5-38.7l0,0l0,0l0,0h0.4v-0.7l0.5-0.8c2.4-0.4,5-0.9,7.8-1.6c1.3,0.8,5.5,3.3,6.7,3.7l0,0l0.3,0.1
		c14.2,7.6,28,21.8,38,39.1c0.4,0.7,1.1,1,1.8,1c0.4,0,0.8-0.1,1.2-0.3c1.1-0.5,2.5-1.9,2.2-2.9l-0.4-1.4c-3.5-13-6.5-24.3-9.3-37.1
		c0.1-1-0.5-3.4-0.8-4l-0.6-3.3c-0.5-2.6-1-5.1-1.5-7.6c17.5-6.9,32.1-13.8,32.2-13.8l0.2-0.1l0.1-0.2
		C151.2,62.4,150.8,59.5,150.8,59.3L150.8,59.3z M93.2,95c-0.1-0.1-0.2-0.2-0.5-0.3c-1.3-0.9-3.1-1.9-4.6-2.8
		c-0.4-0.2-0.8-0.5-1.2-0.7c-0.1-0.1-0.2-0.2-0.5-0.3c-0.3-0.2-0.6-0.3-0.9-0.5c7.4-2.1,16-5,25.6-8.7c0.7,3.4,1.4,6.5,2,9.5
		l0.8,3.7c1.8,7.7,3.8,15.4,6,23.7l-0.6-0.8C112.5,109.5,103.6,101.8,93.2,95L93.2,95z M110.2,76.6c-12.5,4.4-24.5,7.8-32.5,9.9
		c-0.3-0.1-0.6-0.3-0.9-0.4l0.7-1V85c2.1-3.5,4-6.9,5.9-10.1c8.1-13.8,14.7-24.9,21.2-39.1C104.9,45,106.9,59.8,110.2,76.6
		L110.2,76.6z M65.2,89.6l-0.4,0.1l0,0c-19.6-2-36.9-7.3-38.9-10.7c-0.3-0.8-0.1-1.1,0-1.2c0.8-1.1,4.5-1.2,6.2-1
		C46.8,78.5,60,83.2,68.7,87l-1.4,2.1C66,89.4,65.2,89.6,65.2,89.6L65.2,89.6z"/>
</g>
</svg>
