<svg xmlns="http://www.w3.org/2000/svg" viewBox="0 0 76.6 76.66"><defs><style>.cls-1{font-size:10px;font-family:'roboto', Myriad Pro;font-weight:900;}</style></defs><g id="Layer_2" data-name="Layer 2"><g id="Layer_1-2" data-name="Layer 1"><text class="cls-1" transform="translate(48.56 10.04) rotate(25.07)">P</text><text class="cls-1" transform="matrix(0.81, 0.58, -0.58, 0.81, 53.78, 12.56)">L</text><text class="cls-1" transform="matrix(0.69, 0.73, -0.73, 0.69, 58.02, 15.56)">A</text><text class="cls-1" transform="translate(61.99 19.79) rotate(57.03)">Y</text><text class="cls-1" transform="matrix(0.42, 0.91, -0.91, 0.42, 65.09, 24.84)"> </text><text class="cls-1" transform="translate(66.15 26.9) rotate(72.99)">V</text><text class="cls-1" transform="translate(67.78 32.75) rotate(81.58)">I</text><text class="cls-1" transform="translate(68.33 35.59) rotate(91.04)">D</text><text class="cls-1" transform="translate(68.07 42.69) rotate(102.91)">E</text><text class="cls-1" transform="translate(66.93 47.91) rotate(115.03)">O</text><text class="cls-1" transform="translate(63.6 54.48) rotate(124.56)"> </text><text class="cls-1" transform="matrix(-0.64, 0.77, -0.77, -0.64, 62.02, 56.73)"> </text><text class="cls-1" transform="matrix(-0.71, 0.71, -0.71, -0.71, 60.25, 58.81)"> </text><text class="cls-1" transform="translate(58.42 60.75) rotate(143.04)">P</text><text class="cls-1" transform="translate(53.76 64.17) rotate(153.49)">L</text><text class="cls-1" transform="matrix(-0.96, 0.26, -0.26, -0.96, 49.15, 66.5)">A</text><text class="cls-1" transform="translate(43.56 68.02) rotate(175.11)">Y</text><text class="cls-1" transform="translate(37.62 68.37) rotate(-176.78)"> </text><text class="cls-1" transform="matrix(-0.98, -0.19, 0.19, -0.98, 35.31, 68.34)">V</text><text class="cls-1" transform="translate(29.37 67.04) rotate(-160.46)">I</text><text class="cls-1" transform="matrix(-0.87, -0.49, 0.49, -0.87, 26.61, 66.21)">D</text><text class="cls-1" transform="translate(20.47 62.63) rotate(-139.01)">E</text><text class="cls-1" transform="matrix(-0.6, -0.8, 0.8, -0.6, 16.39, 59.17)">O</text><text class="cls-1" transform="translate(12.14 53.14) rotate(-117.51)"> </text><text class="cls-1" transform="matrix(-0.38, -0.93, 0.93, -0.38, 10.9, 50.7)"> </text><text class="cls-1" transform="matrix(-0.29, -0.96, 0.96, -0.29, 9.9, 48.16)"> </text><text class="cls-1" transform="translate(9.05 45.65) rotate(-98.87)">P</text><text class="cls-1" transform="translate(8.23 39.94) rotate(-88.55)">L</text><text class="cls-1" transform="translate(8.33 34.75) rotate(-77.36)">A</text><text class="cls-1" transform="matrix(0.39, -0.92, 0.92, 0.39, 9.61, 29.09)">Y</text><text class="cls-1" transform="translate(12.07 23.71) rotate(-58.72)"> </text><text class="cls-1" transform="matrix(0.63, -0.78, 0.78, 0.63, 13.19, 21.67)">V</text><text class="cls-1" transform="translate(17.14 17.04) rotate(-42.48)">I</text><text class="cls-1" transform="matrix(0.84, -0.54, 0.54, 0.84, 19.18, 14.98)">D</text><text class="cls-1" transform="translate(25.19 11.24) rotate(-21.08)">E</text><text class="cls-1" transform="translate(30.19 9.26) rotate(-8.91)">O</text></g></g></svg>